<mxfile host="Electron" agent="Mozilla/5.0 (Windows NT 10.0; Win64; x64) AppleWebKit/537.36 (KHTML, like Gecko) draw.io/25.0.2 Chrome/128.0.6613.186 Electron/32.2.5 Safari/537.36" version="25.0.2">
  <diagram name="Trang-1" id="g3DCkyaYi3kJTNwioIGE">
    <mxGraphModel dx="1100" dy="731" grid="1" gridSize="10" guides="1" tooltips="1" connect="1" arrows="1" fold="1" page="1" pageScale="1" pageWidth="827" pageHeight="1169" math="0" shadow="0">
      <root>
        <mxCell id="0" />
        <mxCell id="1" parent="0" />
        <mxCell id="gjkGrq-1slqEHUvND0LD-8" value="" style="edgeStyle=orthogonalEdgeStyle;rounded=0;orthogonalLoop=1;jettySize=auto;html=1;fillColor=none;" edge="1" parent="1" source="gjkGrq-1slqEHUvND0LD-2" target="gjkGrq-1slqEHUvND0LD-7">
          <mxGeometry relative="1" as="geometry" />
        </mxCell>
        <mxCell id="gjkGrq-1slqEHUvND0LD-2" value="start" style="ellipse;whiteSpace=wrap;html=1;fillColor=none;" vertex="1" parent="1">
          <mxGeometry x="340" y="90" width="120" height="80" as="geometry" />
        </mxCell>
        <mxCell id="gjkGrq-1slqEHUvND0LD-3" value="end" style="ellipse;whiteSpace=wrap;html=1;" vertex="1" parent="1">
          <mxGeometry x="340" y="460" width="120" height="80" as="geometry" />
        </mxCell>
        <mxCell id="gjkGrq-1slqEHUvND0LD-10" value="" style="edgeStyle=orthogonalEdgeStyle;rounded=0;orthogonalLoop=1;jettySize=auto;html=1;fillColor=none;" edge="1" parent="1" source="gjkGrq-1slqEHUvND0LD-7" target="gjkGrq-1slqEHUvND0LD-9">
          <mxGeometry relative="1" as="geometry" />
        </mxCell>
        <mxCell id="gjkGrq-1slqEHUvND0LD-17" value="" style="edgeStyle=orthogonalEdgeStyle;rounded=0;orthogonalLoop=1;jettySize=auto;html=1;fillColor=none;" edge="1" parent="1" source="gjkGrq-1slqEHUvND0LD-7" target="gjkGrq-1slqEHUvND0LD-16">
          <mxGeometry relative="1" as="geometry" />
        </mxCell>
        <mxCell id="gjkGrq-1slqEHUvND0LD-7" value="num a" style="shape=parallelogram;perimeter=parallelogramPerimeter;whiteSpace=wrap;html=1;fixedSize=1;fillColor=none;" vertex="1" parent="1">
          <mxGeometry x="340" y="210" width="120" height="60" as="geometry" />
        </mxCell>
        <mxCell id="gjkGrq-1slqEHUvND0LD-12" value="" style="edgeStyle=orthogonalEdgeStyle;rounded=0;orthogonalLoop=1;jettySize=auto;html=1;fillColor=none;" edge="1" parent="1" source="gjkGrq-1slqEHUvND0LD-9" target="gjkGrq-1slqEHUvND0LD-11">
          <mxGeometry relative="1" as="geometry" />
        </mxCell>
        <mxCell id="gjkGrq-1slqEHUvND0LD-9" value="if a%2=0" style="rhombus;whiteSpace=wrap;html=1;fillColor=none;" vertex="1" parent="1">
          <mxGeometry x="190" y="200" width="80" height="80" as="geometry" />
        </mxCell>
        <mxCell id="gjkGrq-1slqEHUvND0LD-13" value="" style="edgeStyle=orthogonalEdgeStyle;rounded=0;orthogonalLoop=1;jettySize=auto;html=1;fillColor=none;" edge="1" parent="1" source="gjkGrq-1slqEHUvND0LD-11" target="gjkGrq-1slqEHUvND0LD-3">
          <mxGeometry relative="1" as="geometry" />
        </mxCell>
        <mxCell id="gjkGrq-1slqEHUvND0LD-11" value="in số chẳn" style="shape=parallelogram;perimeter=parallelogramPerimeter;whiteSpace=wrap;html=1;fixedSize=1;fillColor=none;" vertex="1" parent="1">
          <mxGeometry x="170" y="360" width="120" height="60" as="geometry" />
        </mxCell>
        <mxCell id="gjkGrq-1slqEHUvND0LD-19" value="" style="edgeStyle=orthogonalEdgeStyle;rounded=0;orthogonalLoop=1;jettySize=auto;html=1;fillColor=none;" edge="1" parent="1" source="gjkGrq-1slqEHUvND0LD-16" target="gjkGrq-1slqEHUvND0LD-18">
          <mxGeometry relative="1" as="geometry" />
        </mxCell>
        <mxCell id="gjkGrq-1slqEHUvND0LD-16" value="if a%2!=0" style="rhombus;whiteSpace=wrap;html=1;fillColor=none;" vertex="1" parent="1">
          <mxGeometry x="530" y="200" width="80" height="80" as="geometry" />
        </mxCell>
        <mxCell id="gjkGrq-1slqEHUvND0LD-21" value="" style="edgeStyle=orthogonalEdgeStyle;rounded=0;orthogonalLoop=1;jettySize=auto;html=1;entryX=0.5;entryY=0;entryDx=0;entryDy=0;fillColor=none;" edge="1" parent="1" source="gjkGrq-1slqEHUvND0LD-18" target="gjkGrq-1slqEHUvND0LD-3">
          <mxGeometry relative="1" as="geometry">
            <mxPoint x="400" y="505" as="targetPoint" />
          </mxGeometry>
        </mxCell>
        <mxCell id="gjkGrq-1slqEHUvND0LD-18" value="in số lẻ" style="shape=parallelogram;perimeter=parallelogramPerimeter;whiteSpace=wrap;html=1;fixedSize=1;fillColor=none;" vertex="1" parent="1">
          <mxGeometry x="510" y="360" width="120" height="60" as="geometry" />
        </mxCell>
        <mxCell id="gjkGrq-1slqEHUvND0LD-22" value="" style="edgeStyle=none;orthogonalLoop=1;jettySize=auto;html=1;rounded=0;fillColor=none;" edge="1" parent="1">
          <mxGeometry width="80" relative="1" as="geometry">
            <mxPoint x="420" y="390" as="sourcePoint" />
            <mxPoint x="500" y="390" as="targetPoint" />
            <Array as="points" />
          </mxGeometry>
        </mxCell>
      </root>
    </mxGraphModel>
  </diagram>
</mxfile>
